<svg width="16" height="17" viewBox="0 0 16 17" fill="none" xmlns="http://www.w3.org/2000/svg">
<path d="M16 14.9307L11.8301 10.794C12.6144 9.724 13.0781 8.408 13.0781 6.98667C13.0781 3.41 10.1447 0.5 6.5387 0.5C2.93334 0.5 0 3.41 0 6.98667C0 10.564 2.93334 13.4733 6.5387 13.4733C7.90558 13.4733 9.17502 13.0553 10.226 12.3413L14.4181 16.5L16 14.9307ZM1.91793 6.98667C1.91793 4.45867 3.9911 2.402 6.53938 2.402C9.08766 2.402 11.1608 4.45867 11.1608 6.98667C11.1608 9.51467 9.08766 11.5713 6.53938 11.5713C3.99042 11.5713 1.91793 9.51467 1.91793 6.98667Z" fill="#595959"/>
</svg>
